<svg id="Capa_1" enable-background="new 0 0 512 512" height="512" viewBox="0 0 512 512" fill="#fff" width="512" xmlns="http://www.w3.org/2000/svg"><g><g><path d="m126.72 215.872h-116.72c-5.523 0-10-4.478-10-10v-55.255c0-5.523 4.477-10 10-10h116.72c5.522 0 10 4.477 10 10v55.255c0 5.523-4.478 10-10 10zm-106.72-20h96.72v-35.255h-96.72z"/></g><g><path d="m502 215.872h-116.72c-5.522 0-10-4.478-10-10v-55.255c0-5.523 4.478-10 10-10h116.72c5.522 0 10 4.477 10 10v55.255c0 5.523-4.478 10-10 10zm-106.72-20h96.72v-35.255h-96.72z"/></g><g><path d="m126.72 316.128h-116.72c-5.523 0-10-4.478-10-10v-55.256c0-5.523 4.477-10 10-10h116.72c5.522 0 10 4.477 10 10v55.256c0 5.522-4.478 10-10 10zm-106.72-20h96.72v-35.256h-96.72z"/></g><g><path d="m126.72 416.383h-116.72c-5.523 0-10-4.478-10-10v-55.255c0-5.522 4.477-10 10-10h116.72c5.522 0 10 4.478 10 10v55.255c0 5.522-4.478 10-10 10zm-106.72-20h96.72v-35.255h-96.72z"/></g><g><path d="m502 316.128h-116.72c-5.522 0-10-4.478-10-10v-55.256c0-5.523 4.478-10 10-10h116.72c5.522 0 10 4.477 10 10v55.256c0 5.522-4.478 10-10 10zm-106.72-20h96.72v-35.256h-96.72z"/></g><g><path d="m314.36 215.872h-13.36c-5.522 0-10-4.478-10-10 0-5.523 4.478-10 10-10h3.36v-35.255h-96.72v35.255h3.36c5.523 0 10 4.477 10 10 0 5.522-4.477 10-10 10h-13.36c-5.522 0-10-4.478-10-10v-55.255c0-5.523 4.478-10 10-10h116.72c5.522 0 10 4.477 10 10v55.255c0 5.523-4.477 10-10 10z"/></g><g><circle cx="256" cy="205.872" r="10"/></g><g><path d="m126.72 115.617h-116.72c-5.523 0-10-4.478-10-10s4.477-10 10-10h116.72c5.522 0 10 4.478 10 10 0 5.523-4.478 10-10 10z"/></g><g><path d="m502 115.617h-116.72c-5.522 0-10-4.478-10-10s4.478-10 10-10h116.72c5.522 0 10 4.478 10 10 0 5.523-4.478 10-10 10z"/></g><g><path d="m314.36 115.617h-116.72c-5.522 0-10-4.478-10-10s4.478-10 10-10h116.72c5.522 0 10 4.478 10 10 0 5.523-4.477 10-10 10z"/></g></g></svg>
